<svg width="100" height="100" viewBox="0 0 100 100" xmlns="http://www.w3.org/2000/svg">
  <defs>
    <!-- Gradient for modern look -->
    <linearGradient id="githubGradient" x1="0%" y1="0%" x2="100%" y2="100%">
      <stop offset="0%" style="stop-color:#6366f1;stop-opacity:1" />
      <stop offset="50%" style="stop-color:#8b5cf6;stop-opacity:1" />
      <stop offset="100%" style="stop-color:#a855f7;stop-opacity:1" />
    </linearGradient>
    
    <!-- Shadow filter -->
    <filter id="shadow" x="-20%" y="-20%" width="140%" height="140%">
      <feDropShadow dx="2" dy="4" stdDeviation="3" flood-opacity="0.3"/>
    </filter>
    
    <!-- Glow effect -->
    <filter id="glow" x="-20%" y="-20%" width="140%" height="140%">
      <feGaussianBlur stdDeviation="2" result="coloredBlur"/>
      <feMerge> 
        <feMergeNode in="coloredBlur"/>
        <feMergeNode in="SourceGraphic"/>
      </feMerge>
    </filter>
  </defs>
  
  <!-- Background circle with gradient -->
  <circle cx="50" cy="50" r="48" fill="url(#githubGradient)" filter="url(#shadow)" opacity="0.9"/>
  
  <!-- GitHub Octocat icon -->
  <path d="M50 15C30.7 15 15 30.7 15 50c0 15.4 10 28.5 23.9 33.1 1.7.3 2.4-.7 2.4-1.6v-5.6c-9.7 2.1-11.7-4.7-11.7-4.7-1.6-4-3.9-5.1-3.9-5.1-3.2-2.2.2-2.1.2-2.1 3.5.2 5.4 3.6 5.4 3.6 3.1 5.3 8.2 3.8 10.2 2.9.3-2.3 1.2-3.8 2.2-4.7-7.8-.9-16-3.9-16-17.4 0-3.8 1.4-7 3.6-9.4-.4-.9-1.6-4.5.3-9.4 0 0 2.9-.9 9.5 3.6 2.8-.8 5.7-1.2 8.7-1.2s5.9.4 8.7 1.2c6.6-4.5 9.5-3.6 9.5-3.6 1.9 4.9.7 8.5.3 9.4 2.2 2.4 3.6 5.6 3.6 9.4 0 13.5-8.2 16.5-16 17.4 1.3 1.1 2.4 3.3 2.4 6.6v9.8c0 .9.7 1.9 2.4 1.6C75 78.5 85 65.4 85 50 85 30.7 69.3 15 50 15z" 
        fill="white" 
        filter="url(#glow)"/>
  
  <!-- Additional styling elements -->
  <circle cx="50" cy="50" r="48" fill="none" stroke="rgba(255,255,255,0.2)" stroke-width="1"/>
  
  <!-- Highlight effect -->
  <ellipse cx="35" cy="35" rx="8" ry="4" fill="rgba(255,255,255,0.3)" transform="rotate(-45 35 35)"/>
</svg>